<?xml version="1.0" encoding="UTF-8" standalone="no"?><!DOCTYPE svg PUBLIC "-//W3C//DTD SVG 1.1//EN" "http://www.w3.org/Graphics/SVG/1.1/DTD/svg11.dtd"><svg width="100%" height="100%" viewBox="0 0 219 46" version="1.1" xmlns="http://www.w3.org/2000/svg" xmlns:xlink="http://www.w3.org/1999/xlink" xml:space="preserve" xmlns:serif="http://www.serif.com/" style="fill-rule:evenodd;clip-rule:evenodd;stroke-linejoin:round;stroke-miterlimit:1.41421;"><g><clipPath id="_clip1"><rect x="25.428" y="8.156" width="7.235" height="7.291"/></clipPath><g clip-path="url(#_clip1)"><text x="22.238px" y="44.386px" style="font-family:'ArialRoundedMTBold', 'Arial Rounded MT Bold', sans-serif;font-size:50px;fill:#fff;">i</text></g><clipPath id="_clip2"><rect x="35.849" y="8.156" width="7.235" height="7.291"/></clipPath><g clip-path="url(#_clip2)"><text x="32.659px" y="44.386px" style="font-family:'ArialRoundedMTBold', 'Arial Rounded MT Bold', sans-serif;font-size:50px;fill:#fff;">i</text></g><g><clipPath id="_clip3"><path d="M24.897,15.77l-7.157,-0.033l-0.013,2.782l7.157,0.033l0.013,-2.782Z"/></clipPath><g clip-path="url(#_clip3)"><g transform="matrix(0.999989,0.00466252,-0.00466252,0.999989,-1.13695,0.872893)"><text x="15.105px" y="49.721px" style="font-family:'ArialRoundedMTBold', 'Arial Rounded MT Bold', sans-serif;font-size:48px;fill:#fff;">l</text></g></g><clipPath id="_clip4"><path d="M44.093,15.77l7.157,-0.033l0.013,2.782l-7.157,0.033l-0.013,-2.782Z"/></clipPath><g clip-path="url(#_clip4)"><g transform="matrix(0.999989,-0.00466252,0.00466252,0.999989,1.1377,1.19456)"><text x="53.885px" y="49.721px" style="font-family:'ArialRoundedMTBold', 'Arial Rounded MT Bold', sans-serif;font-size:48px;fill:#fff;">l</text></g></g><clipPath id="_clip5"><rect x="17.674" y="18.466" width="33.656" height="16.281"/></clipPath><g clip-path="url(#_clip5)"><text x="15.518px" y="34.161px" style="font-family:'ArialRoundedMTBold', 'Arial Rounded MT Bold', sans-serif;font-size:48px;fill:#fff;">O</text></g></g><text x="-0.68px" y="34.945px" style="font-family:'ArialRoundedMTBold', 'Arial Rounded MT Bold', sans-serif;font-size:48px;fill:#fff;">t   ne<tspan x="109.195px 139.195px " y="34.945px 34.945px ">bo</tspan>lly</text></g></svg>